<?xml version="1.0" standalone="no"?>
<!DOCTYPE svg PUBLIC "-//W3C//DTD SVG 20010904//EN"
 "http://www.w3.org/TR/2001/REC-SVG-20010904/DTD/svg10.dtd">
<svg version="1.0" xmlns="http://www.w3.org/2000/svg"
 width="1200.000000pt" height="1200.000000pt" viewBox="0 0 1200.000000 1200.000000"
 preserveAspectRatio="xMidYMid meet">
<metadata>
Created by potrace 1.14, written by Peter Selinger 2001-2017
</metadata>
<g transform="translate(0.000000,1200.000000) scale(0.100000,-0.100000)"
fill="#000000" stroke="none">
<path d="M5480 10949 c0 -22 0 -22 -16 -3 -8 10 -13 13 -9 7 3 -7 1 -13 -5
-13 -6 0 -8 -5 -4 -12 4 -7 3 -8 -4 -4 -7 4 -12 15 -13 24 0 14 -2 13 -9 -3
-5 -11 -9 -15 -9 -9 -1 15 -41 10 -52 -7 -7 -11 -9 -10 -9 6 0 17 -2 17 -10 5
-7 -11 -10 -11 -10 -2 0 7 -5 10 -10 7 -6 -4 -7 -12 -3 -18 4 -8 1 -7 -9 1
-11 9 -18 10 -23 2 -3 -5 -11 -10 -16 -10 -6 0 -8 4 -5 9 11 17 -55 3 -68 -14
-9 -13 -15 -15 -20 -6 -4 6 -12 9 -17 5 -5 -3 -6 -10 -3 -16 4 -7 2 -8 -5 -4
-6 4 -9 11 -6 16 3 4 -2 10 -10 13 -10 4 -12 1 -8 -11 6 -14 4 -15 -9 -4 -13
10 -18 10 -24 1 -4 -7 -3 -9 2 -6 5 3 10 -3 10 -13 0 -18 -1 -18 -17 -2 -9 9
-14 22 -11 27 3 6 -2 4 -11 -4 -9 -7 -17 -10 -17 -6 0 4 -7 2 -15 -5 -9 -7
-18 -10 -22 -7 -3 4 -12 -1 -19 -11 -12 -15 -15 -15 -25 -2 -8 11 -12 12 -16
3 -2 -7 -9 -13 -14 -13 -6 0 -7 6 -3 13 5 7 1 7 -10 -2 -15 -13 -19 -13 -27 0
-7 12 -9 11 -9 -3 0 -9 6 -19 13 -21 9 -4 9 -6 0 -6 -6 -1 -15 4 -18 9 -3 6
-11 10 -16 10 -6 0 -8 -4 -5 -9 3 -4 -7 -13 -22 -20 -24 -10 -25 -10 -9 2 23
19 22 30 -2 18 -10 -6 -22 -7 -26 -3 -3 4 -6 3 -5 -3 5 -23 -1 -28 -14 -10
-13 18 -14 18 -25 -4 -10 -18 -15 -20 -27 -10 -10 8 -18 9 -27 0 -8 -6 -18 -7
-22 -3 -5 4 -5 1 -1 -5 8 -14 6 -15 -41 -17 -18 -1 -36 -6 -40 -11 -5 -4 -2
-5 5 -1 18 10 15 1 -5 -15 -9 -8 -14 -9 -11 -4 4 6 3 17 -3 25 -6 10 -9 11 -9
3 0 -7 -6 -13 -14 -13 -8 0 -21 -9 -29 -20 -13 -18 -15 -19 -21 -5 -3 9 -2 13
4 10 6 -3 10 -1 10 4 0 15 -13 14 -36 -3 -15 -11 -22 -12 -33 -3 -12 9 -13 9
-7 0 4 -8 2 -13 -4 -13 -6 0 -8 -4 -5 -10 9 -14 -8 -12 -24 3 -11 10 -13 9 -9
-3 4 -11 -2 -15 -20 -17 -13 0 -28 -7 -33 -15 -6 -10 -9 -10 -9 0 0 6 -5 12
-11 12 -6 0 -9 -6 -6 -13 4 -10 -3 -12 -25 -9 -20 3 -29 1 -24 -6 8 -14 -19
-23 -32 -10 -6 6 -12 6 -17 -3 -6 -8 -4 -10 5 -4 8 5 11 4 6 -3 -4 -6 -14 -8
-24 -5 -15 6 -16 5 -2 -12 14 -18 13 -17 -15 1 -26 17 -28 17 -22 1 3 -9 2
-17 -3 -17 -6 0 -10 6 -10 13 0 6 -6 3 -12 -8 -6 -11 -12 -21 -13 -23 -7 -8
-34 12 -28 22 4 6 -1 5 -10 -3 -9 -7 -17 -21 -17 -30 0 -9 -3 -12 -8 -6 -9 13
-27 13 -39 1 -4 -5 -3 -6 4 -2 6 3 14 3 17 -2 3 -5 0 -9 -7 -9 -7 0 -21 -4
-32 -8 -16 -5 -17 -5 -5 4 8 6 12 11 8 11 -11 0 -93 -44 -100 -55 -5 -6 -8 -5
-8 3 0 7 -5 10 -10 7 -6 -4 -8 -11 -5 -16 4 -5 -1 -9 -10 -9 -10 0 -14 5 -10
13 4 6 -1 3 -9 -7 -9 -11 -23 -21 -32 -22 -9 -1 -22 -11 -31 -21 -8 -10 -12
-13 -9 -8 2 6 -4 11 -14 11 -14 0 -16 -3 -8 -13 8 -11 7 -12 -7 -7 -14 6 -16
4 -10 -7 7 -11 6 -12 -6 -2 -13 10 -19 10 -35 -3 -10 -8 -13 -13 -6 -9 6 3 12
1 12 -4 0 -6 -11 -11 -25 -11 -14 0 -25 -6 -25 -12 0 -9 -4 -8 -10 2 -8 13
-10 13 -10 -2 0 -21 -16 -32 -26 -17 -5 8 -3 9 6 4 9 -6 11 -4 6 4 -9 13 -21
6 -21 -11 0 -6 -6 -13 -14 -16 -9 -3 -11 0 -7 9 4 8 -4 2 -18 -13 -17 -19 -31
-26 -42 -21 -12 4 -15 3 -10 -5 4 -7 1 -12 -9 -12 -9 0 -13 -5 -9 -11 4 -7 -1
-7 -16 1 -16 8 -20 9 -15 1 4 -7 -6 -16 -24 -22 -17 -6 -31 -16 -31 -21 0 -6
8 -4 18 3 15 13 16 12 4 -3 -7 -9 -22 -15 -34 -13 -14 3 -18 0 -14 -10 3 -8 0
-17 -6 -21 -6 -4 -8 -3 -4 4 3 6 1 14 -5 17 -6 4 -13 -2 -16 -14 -3 -11 -9
-18 -14 -15 -5 3 -6 11 -3 17 4 7 3 8 -2 4 -5 -5 -9 -14 -9 -20 0 -5 -6 -12
-14 -15 -8 -3 -11 0 -7 7 11 17 0 13 -15 -6 -12 -14 -12 -16 0 -8 10 6 12 4 7
-4 -5 -7 -14 -10 -22 -7 -7 3 -18 -4 -24 -14 -6 -11 -17 -20 -24 -20 -8 0 -16
-9 -19 -20 -3 -13 -11 -18 -20 -14 -8 3 -18 0 -22 -5 -3 -6 -11 -9 -16 -6 -5
4 -12 -1 -15 -9 -3 -9 -11 -13 -17 -9 -6 3 -7 1 -3 -5 4 -7 2 -12 -4 -12 -6 0
-8 -5 -4 -11 5 -8 1 -8 -14 0 -16 8 -21 7 -26 -5 -3 -9 -4 -20 -1 -25 4 -5 -1
-6 -9 -3 -18 7 -86 -45 -86 -66 0 -13 -1 -13 -11 0 -9 12 -10 11 -6 -8 3 -12
1 -19 -4 -16 -5 3 -12 -2 -15 -10 -3 -9 -10 -13 -16 -10 -5 3 -1 12 9 21 16
13 16 13 -5 3 -15 -8 -21 -17 -18 -27 6 -14 4 -14 -11 -2 -11 9 -14 10 -9 2 4
-8 2 -13 -4 -13 -6 0 -9 -4 -5 -9 3 -5 -11 -15 -30 -21 -19 -6 -35 -16 -35
-21 0 -6 6 -7 13 -3 7 4 9 3 4 -2 -9 -9 -13 -10 -44 -13 -16 -1 -16 -3 2 -17
20 -16 20 -16 -1 -10 -16 5 -30 -2 -56 -26 -18 -18 -26 -27 -17 -20 13 10 19
11 25 1 4 -7 3 -10 -3 -6 -6 4 -16 0 -23 -8 -7 -8 -18 -15 -25 -15 -7 0 -18
-7 -25 -15 -7 -8 -17 -12 -23 -8 -6 4 -8 0 -4 -10 3 -10 2 -17 -4 -17 -6 0 -7
-4 -4 -10 4 -6 -1 -7 -11 -3 -13 5 -15 3 -9 -7 6 -10 4 -12 -10 -7 -14 6 -16
3 -12 -13 4 -17 2 -18 -14 -9 -11 5 -19 6 -18 2 4 -26 -3 -44 -17 -41 -10 2
-23 -10 -33 -28 -9 -17 -22 -29 -29 -26 -8 2 -10 -2 -5 -14 5 -13 3 -15 -7 -9
-10 6 -12 4 -7 -8 4 -11 1 -15 -13 -12 -11 2 -22 0 -25 -6 -4 -5 0 -9 7 -10 7
0 0 -5 -15 -11 -20 -7 -27 -15 -24 -28 3 -11 -1 -17 -12 -16 -9 0 -16 -7 -16
-16 0 -9 -4 -20 -9 -25 -5 -5 -6 -2 -2 5 7 11 4 11 -12 1 -12 -7 -18 -19 -14
-27 3 -10 1 -13 -6 -8 -7 4 -12 3 -12 -2 0 -5 -10 -12 -21 -15 -14 -4 -20 -11
-16 -21 3 -8 2 -18 -3 -21 -4 -3 -11 1 -13 7 -5 12 -11 -15 -8 -34 0 -4 -5 -5
-12 -3 -6 2 -28 -15 -46 -40 -19 -24 -39 -41 -44 -38 -5 3 -4 -5 3 -17 11 -20
10 -22 -3 -17 -12 4 -14 2 -10 -10 5 -12 2 -15 -10 -10 -19 7 -37 -19 -29 -42
3 -8 0 -11 -7 -7 -6 4 -11 0 -11 -9 0 -9 -4 -13 -10 -10 -5 3 -11 -1 -11 -9
-3 -33 -4 -37 -19 -46 -8 -5 -18 -6 -22 -4 -4 3 -5 -3 -1 -12 3 -10 2 -15 -3
-12 -5 3 -17 -5 -27 -18 -14 -19 -15 -23 -2 -18 8 3 15 10 15 15 0 5 6 9 13 9
6 0 0 -11 -15 -24 -15 -13 -24 -28 -20 -32 4 -5 -1 -2 -10 5 -11 8 -18 9 -18
3 0 -6 5 -14 10 -17 13 -8 3 -25 -13 -25 -7 0 -6 4 3 10 8 5 10 10 4 10 -18 0
-24 -12 -13 -26 8 -10 6 -12 -8 -9 -12 2 -20 -2 -20 -10 0 -7 7 -11 16 -9 9 3
6 -1 -6 -7 -13 -7 -23 -17 -23 -24 0 -7 -10 -17 -23 -24 l-22 -11 23 6 c13 3
22 1 22 -6 0 -6 -4 -9 -9 -6 -5 3 -20 -3 -32 -15 -18 -16 -20 -19 -6 -15 11 3
16 2 12 -4 -3 -6 -12 -10 -20 -10 -9 0 -12 -8 -10 -21 4 -18 2 -19 -12 -7 -12
9 -15 9 -9 1 4 -7 2 -13 -3 -13 -6 0 -11 -6 -11 -14 0 -7 -7 -19 -15 -26 -11
-9 -12 -17 -4 -32 6 -11 7 -18 2 -15 -14 9 -45 -32 -39 -49 3 -8 2 -13 -3 -9
-5 3 -17 -2 -26 -11 -13 -13 -13 -19 -3 -32 11 -14 10 -15 -6 -9 -15 6 -17 4
-13 -13 3 -11 0 -23 -5 -27 -7 -4 -8 -1 -3 7 5 9 4 11 -4 6 -9 -6 -9 -11 -1
-21 13 -16 -3 -30 -22 -19 -6 4 -8 3 -4 -4 3 -6 2 -13 -4 -17 -5 -3 -10 -17
-10 -31 0 -14 -4 -22 -10 -19 -6 3 -10 1 -10 -5 0 -6 -4 -8 -10 -5 -6 3 -7 -1
-4 -10 5 -13 9 -13 23 -3 13 10 13 9 -2 -8 -9 -11 -14 -25 -10 -29 5 -5 0 -3
-10 4 -15 12 -17 12 -12 -1 3 -8 -3 -23 -15 -33 -11 -10 -20 -22 -20 -28 0 -5
8 1 18 14 15 17 21 19 27 9 5 -7 4 -11 -1 -8 -5 2 -19 -6 -31 -19 -12 -13 -17
-23 -11 -23 7 0 4 -6 -7 -13 -11 -9 -15 -19 -10 -27 5 -8 4 -11 -3 -6 -6 3
-13 2 -17 -4 -3 -5 -1 -10 4 -10 6 0 11 -5 11 -11 0 -5 -4 -7 -10 -4 -5 3 -10
-1 -10 -10 0 -10 -5 -13 -12 -9 -10 6 -10 4 0 -8 10 -13 10 -18 1 -24 -8 -5
-9 -3 -4 6 6 9 4 11 -4 6 -7 -5 -10 -11 -7 -14 3 -3 -2 -14 -11 -25 -10 -11
-13 -18 -8 -14 6 3 11 -3 11 -13 0 -15 -3 -16 -14 -8 -10 9 -12 8 -10 -3 2 -8
8 -17 13 -21 6 -5 3 -8 -7 -8 -9 0 -20 -5 -24 -12 -5 -7 -2 -9 9 -5 11 4 14 2
10 -9 -3 -8 -11 -13 -18 -10 -14 5 -15 -11 -2 -30 4 -7 -1 -18 -11 -25 -16
-13 -16 -12 -2 6 14 20 14 20 -7 1 -21 -17 -26 -47 -11 -62 9 -8 -2 -34 -14
-34 -6 0 -5 8 3 18 11 14 11 15 -1 5 -20 -18 -21 -43 -2 -44 13 0 13 -2 -3 -8
-11 -5 -28 -17 -38 -28 -14 -16 -14 -20 -2 -20 8 0 11 5 8 10 -3 6 -1 7 6 3 8
-6 9 -12 2 -20 -7 -9 -7 -17 2 -26 10 -12 9 -12 -5 -2 -11 9 -18 10 -23 2 -3
-5 -2 -10 3 -10 5 0 9 -7 9 -15 0 -10 -4 -12 -12 -5 -8 6 -12 6 -13 -3 -1 -17
-9 -48 -18 -71 -5 -14 -4 -17 4 -12 7 4 12 2 12 -3 0 -6 -8 -11 -17 -11 -15 0
-16 -2 -3 -10 13 -8 12 -10 -2 -10 -10 0 -18 -5 -18 -11 0 -5 4 -8 9 -4 5 3
13 0 17 -6 4 -7 3 -9 -3 -6 -16 10 -34 -16 -23 -33 7 -11 3 -20 -13 -33 -12
-10 -17 -16 -11 -13 15 8 26 -21 12 -30 -7 -5 -8 -2 -3 6 5 9 4 11 -4 6 -9 -6
-9 -11 0 -22 10 -12 9 -13 -6 -8 -15 6 -16 4 -6 -14 8 -16 9 -22 1 -22 -6 0
-8 -5 -5 -10 4 -6 12 -7 18 -4 7 4 8 3 4 -2 -5 -5 -14 -9 -19 -9 -6 0 -13 -6
-16 -14 -3 -8 0 -11 5 -8 5 3 10 0 10 -8 0 -8 -3 -12 -7 -10 -3 2 -12 -6 -20
-18 -11 -19 -11 -20 1 -10 12 10 15 8 15 -7 0 -10 -4 -16 -8 -14 -17 11 -28
-7 -18 -27 8 -13 7 -19 0 -19 -6 0 -8 -5 -5 -11 4 -5 -1 -19 -10 -29 -12 -14
-13 -20 -4 -26 7 -4 10 -3 5 4 -3 6 -2 13 3 16 10 7 9 -13 -1 -30 -4 -6 -6
-21 -3 -33 2 -13 -2 -24 -11 -28 -13 -5 -13 -9 2 -30 9 -14 11 -22 5 -19 -6 4
-11 0 -11 -9 0 -9 -4 -14 -8 -11 -5 3 -9 -1 -9 -9 0 -8 5 -11 10 -8 6 4 7 1 1
-8 -11 -18 -15 -36 -17 -79 -1 -19 -8 -41 -14 -48 -10 -10 -9 -19 4 -40 17
-26 17 -26 0 -13 -16 12 -18 12 -15 0 2 -8 7 -17 11 -20 5 -3 2 -12 -5 -20
-18 -19 -16 -85 3 -82 8 2 4 -4 -9 -13 -21 -16 -21 -17 -5 -30 17 -13 17 -14
-1 -7 -12 4 -17 2 -13 -4 11 -17 16 -64 6 -58 -5 4 -9 -1 -9 -10 0 -9 4 -14 9
-11 5 4 8 -1 7 -10 -1 -8 -9 -20 -17 -25 -12 -7 -11 -9 3 -9 9 0 20 -5 24 -12
4 -7 3 -8 -4 -4 -7 4 -12 2 -12 -4 0 -6 -6 -8 -12 -4 -10 5 -10 4 -1 -6 10
-11 9 -16 -4 -25 -13 -10 -13 -14 -3 -20 8 -5 11 -4 7 2 -3 5 1 10 10 10 13 0
13 -3 -3 -16 -30 -24 -31 -27 -11 -49 15 -16 16 -22 5 -33 -16 -16 -16 -28 -4
-48 6 -10 5 -16 -2 -19 -8 -2 -8 -8 2 -18 15 -14 11 -54 -6 -54 -5 0 -6 -5 -3
-10 4 -6 12 -8 18 -4 7 3 4 -1 -6 -9 -11 -9 -14 -16 -7 -19 6 -2 12 -10 13
-18 2 -8 6 -22 11 -30 7 -12 6 -13 -5 -2 -19 18 -25 15 -25 -12 0 -14 3 -23 7
-20 12 7 17 -20 8 -44 -5 -13 -6 -21 -1 -19 4 3 13 -2 21 -10 12 -13 11 -14
-10 -8 -21 7 -22 6 -11 -8 9 -11 10 -17 2 -22 -8 -5 -8 -11 1 -21 6 -7 15 -12
18 -9 4 2 8 -2 8 -10 0 -11 -4 -12 -13 -4 -8 7 -14 6 -20 -2 -5 -8 -3 -9 6 -4
9 6 10 2 5 -15 -6 -17 -4 -21 6 -15 8 5 5 -2 -5 -14 -15 -16 -16 -20 -5 -16
10 4 16 0 16 -9 0 -8 -5 -12 -10 -9 -5 3 -7 0 -5 -8 3 -8 11 -13 17 -11 8 2 9
-3 2 -16 -6 -11 -6 -24 -1 -33 7 -10 4 -16 -8 -21 -16 -6 -15 -7 1 -7 10 -1
15 -6 12 -11 -4 -6 -12 -7 -18 -3 -7 3 -5 -2 4 -13 8 -10 15 -31 14 -46 -1
-21 2 -25 12 -16 18 15 16 3 -3 -16 -10 -10 -11 -16 -3 -16 8 0 8 -4 -1 -15
-11 -13 -10 -14 5 -9 15 6 16 4 5 -16 -11 -20 -10 -22 3 -17 16 6 17 -8 4 -30
-5 -8 -3 -13 4 -13 8 0 7 -5 -2 -17 -8 -9 -9 -14 -4 -11 6 3 17 -1 25 -10 13
-14 12 -15 -2 -10 -13 5 -15 1 -13 -19 1 -14 8 -29 15 -33 9 -6 9 -9 1 -15 -9
-5 -9 -10 0 -21 6 -7 15 -12 18 -9 4 2 8 -3 8 -11 0 -10 -4 -11 -11 -4 -5 5
-15 10 -21 10 -5 0 -4 -4 2 -8 7 -4 14 -23 16 -42 3 -19 10 -36 16 -38 8 -3 6
-9 -6 -18 -17 -13 -17 -14 0 -8 15 6 16 3 7 -20 -5 -15 -6 -25 -2 -22 4 2 14
1 22 -5 12 -7 11 -9 -5 -9 -18 -1 -19 -1 -2 -11 19 -11 23 -29 6 -29 -5 0 -7
5 -3 12 5 7 3 8 -5 4 -9 -6 -8 -12 4 -26 11 -12 13 -20 5 -25 -5 -3 -8 -11 -4
-16 3 -6 12 -5 22 3 14 12 14 10 3 -9 -10 -19 -9 -23 4 -23 9 0 13 -5 10 -10
-4 -6 -10 -8 -15 -5 -4 3 -7 -3 -5 -12 1 -10 8 -17 14 -15 11 2 15 -10 11 -42
-1 -13 2 -16 12 -10 10 6 10 4 -1 -9 -10 -13 -10 -17 -1 -17 7 0 10 -8 7 -20
-3 -13 2 -28 15 -39 19 -18 19 -19 1 -31 -16 -10 -16 -11 5 -6 18 3 21 2 12
-9 -8 -10 -7 -14 2 -18 7 -3 4 -6 -7 -6 -18 -1 -17 -3 5 -14 26 -13 33 -42 16
-66 -8 -11 -8 -13 1 -8 7 5 17 -2 24 -15 11 -21 11 -22 -5 -9 -14 12 -16 12
-10 -3 3 -9 10 -16 15 -16 5 0 7 -11 5 -26 -3 -16 0 -27 10 -31 8 -3 14 -12
14 -20 0 -9 5 -11 13 -7 8 5 8 2 -2 -9 -8 -11 -9 -17 -3 -17 7 0 9 -7 5 -17
-4 -10 -2 -14 5 -9 6 3 13 2 17 -4 3 -5 1 -10 -4 -10 -6 0 -11 -5 -11 -11 0
-6 7 -9 15 -5 8 3 15 1 15 -4 0 -6 -5 -10 -11 -10 -8 0 -8 -5 1 -15 7 -8 10
-15 6 -15 -4 0 0 -13 8 -29 9 -16 12 -32 8 -36 -4 -5 -1 -5 5 -1 9 5 13 -1 13
-18 0 -14 5 -26 11 -26 5 0 7 4 4 10 -3 6 1 7 10 4 14 -6 14 -8 -1 -19 -14 -9
-14 -14 -4 -20 9 -5 11 -4 6 3 -4 7 -5 12 -2 12 3 0 10 -10 17 -21 7 -13 7
-19 1 -15 -6 3 -13 2 -17 -4 -3 -5 2 -10 13 -10 27 0 32 -9 21 -37 -8 -20 -7
-24 5 -20 10 4 14 0 11 -13 -2 -11 1 -23 7 -26 7 -5 8 -2 3 7 -6 11 -5 12 5 2
11 -10 11 -15 -1 -29 -10 -13 -10 -16 -1 -10 14 8 42 -10 42 -27 0 -6 -6 -3
-13 8 -11 14 -16 15 -22 5 -5 -8 -4 -11 3 -6 6 3 13 -3 17 -14 4 -11 10 -18
15 -15 4 3 7 -3 6 -13 0 -10 5 -16 14 -14 8 2 12 0 8 -3 -4 -4 -3 -17 3 -28 9
-15 8 -18 -3 -11 -11 6 -11 5 1 -9 7 -9 10 -17 5 -17 -5 0 -1 -5 9 -11 9 -5
22 -7 27 -4 6 3 7 -1 4 -9 -3 -9 -10 -13 -15 -10 -5 3 -1 -9 9 -25 9 -17 23
-31 30 -31 12 0 16 -13 12 -39 -1 -8 4 -12 13 -8 11 4 13 0 10 -14 -3 -12 0
-19 8 -19 11 0 11 -2 -1 -10 -13 -8 -12 -10 4 -10 14 0 17 -5 13 -21 -4 -15
-2 -18 7 -10 17 14 29 1 15 -16 -9 -10 -8 -13 1 -13 7 0 10 -7 7 -14 -4 -10
-1 -13 9 -9 10 4 12 0 7 -13 -4 -11 -3 -15 4 -11 6 4 16 0 23 -8 11 -13 10
-14 -5 -9 -13 5 -16 4 -11 -4 4 -7 15 -12 24 -12 15 0 15 -2 2 -10 -13 -8 -13
-10 1 -10 19 0 35 -30 16 -31 -7 0 -2 -4 10 -9 13 -5 23 -18 23 -28 0 -12 13
-26 32 -36 l33 -17 -30 5 c-16 3 -24 3 -17 0 6 -3 10 -9 7 -14 -3 -4 5 -6 17
-3 19 4 20 3 8 -6 -13 -10 -13 -11 0 -12 8 -1 19 -1 23 0 4 1 3 -7 -2 -18 -8
-15 -7 -20 5 -25 8 -3 13 -2 10 2 -3 5 1 9 8 9 7 0 12 -11 11 -26 -1 -14 7
-35 18 -46 11 -11 16 -13 12 -5 -8 13 -7 13 9 0 11 -8 14 -16 7 -18 -17 -6 27
-62 57 -73 13 -5 22 -12 19 -16 -11 -11 14 -45 29 -39 9 3 12 1 9 -4 -3 -6 -2
-10 3 -10 5 0 8 -10 7 -23 -3 -32 4 -40 23 -25 13 11 14 11 10 -2 -5 -17 18
-44 31 -35 5 3 13 0 17 -6 4 -8 3 -9 -4 -5 -7 4 -12 2 -12 -3 0 -6 5 -11 10
-11 6 0 10 -5 10 -11 0 -5 -5 -7 -12 -3 -6 4 -8 3 -4 -4 3 -6 15 -9 26 -7 11
2 23 -1 26 -7 4 -7 2 -8 -4 -4 -7 4 -12 0 -12 -10 0 -10 3 -14 7 -11 3 4 15
-5 25 -20 10 -16 18 -24 18 -19 0 5 8 -1 19 -12 10 -12 22 -18 27 -14 4 4 2
-2 -6 -12 -14 -18 -13 -19 8 -14 18 5 21 4 12 -7 -8 -10 -8 -15 1 -21 8 -4 9
-3 5 4 -5 8 -2 10 9 6 11 -5 13 -10 5 -19 -9 -11 -6 -12 12 -8 18 4 20 3 8 -6
-12 -9 -11 -11 9 -11 21 0 22 -2 10 -17 -10 -11 -10 -14 -2 -9 7 4 13 2 13 -3
0 -6 10 -11 21 -11 19 0 20 -2 8 -17 -7 -10 -9 -15 -5 -11 5 4 15 0 23 -10 8
-9 12 -11 8 -5 -4 8 -1 11 9 7 9 -3 12 -12 9 -21 -4 -10 -2 -14 5 -9 6 3 13
-3 17 -14 4 -11 14 -19 22 -18 9 2 18 -4 20 -12 4 -13 3 -13 -6 0 -6 8 -11 10
-11 4 0 -18 12 -24 26 -13 10 8 12 6 9 -10 -3 -15 0 -18 12 -14 12 5 14 3 8
-8 -7 -11 -5 -11 10 1 17 13 18 13 13 0 -3 -9 0 -24 8 -35 10 -14 14 -15 15
-4 1 8 4 3 8 -11 5 -16 13 -24 24 -22 10 2 17 -1 16 -5 -3 -21 3 -31 27 -42
14 -6 31 -8 37 -4 7 4 5 -2 -3 -13 -8 -10 -11 -16 -6 -12 5 4 16 -1 25 -10 9
-10 12 -12 7 -5 -5 8 -4 13 2 13 5 0 15 -13 21 -28 7 -16 20 -28 32 -29 12 -1
17 2 13 9 -4 7 -2 8 4 4 6 -4 8 -14 5 -23 -5 -13 -2 -15 12 -10 16 7 16 5 4
-10 -9 -11 -10 -14 -1 -9 7 4 12 2 12 -4 0 -6 5 -8 10 -5 6 3 10 1 10 -4 0 -6
8 -11 17 -11 9 0 13 -3 10 -7 -10 -9 35 -38 54 -35 9 2 19 -5 23 -14 5 -14 4
-15 -9 -4 -26 21 -16 5 11 -19 l26 -22 -6 23 -6 23 11 -22 c7 -13 16 -23 21
-23 5 0 6 -5 2 -12 -4 -7 -3 -8 4 -4 6 3 16 -3 22 -14 6 -11 15 -18 21 -15 5
4 9 1 9 -6 0 -6 8 -9 19 -6 15 3 18 1 14 -12 -5 -13 -3 -14 8 -3 19 18 29 15
29 -9 0 -17 5 -20 21 -16 17 5 18 3 7 -11 -10 -12 -10 -14 0 -8 7 4 15 1 18
-8 3 -9 10 -14 14 -11 5 3 14 -3 20 -12 10 -16 11 -16 6 -1 -3 10 0 20 6 24 6
4 8 3 4 -4 -3 -6 -1 -15 6 -21 7 -6 26 -22 41 -35 17 -15 35 -22 44 -19 12 5
14 3 8 -7 -6 -10 -3 -12 13 -8 13 4 27 -1 38 -13 9 -10 22 -16 28 -12 6 4 4
-2 -4 -12 -9 -11 -10 -16 -2 -11 6 4 12 3 12 -2 0 -6 7 -13 16 -16 14 -5 15
-4 5 8 -11 13 -9 13 13 3 14 -7 26 -16 26 -20 0 -5 -5 -5 -12 -1 -7 4 -8 3 -4
-5 4 -6 12 -9 17 -6 5 4 9 1 9 -4 0 -6 4 -11 10 -11 5 0 7 7 4 15 -4 8 -1 15
5 15 6 0 10 -3 10 -7 -5 -28 2 -36 16 -17 13 18 14 18 8 -5 -5 -21 -3 -23 15
-19 14 4 22 2 22 -7 0 -7 7 -16 16 -19 10 -4 13 -2 9 7 -4 6 0 4 9 -7 8 -10
22 -16 31 -13 9 4 15 1 15 -7 0 -20 45 -37 60 -23 7 7 10 8 8 2 -8 -14 19 -38
27 -25 10 16 25 1 18 -18 -3 -9 -3 -14 2 -10 4 4 15 2 23 -5 9 -6 13 -7 9 -1
-3 6 0 11 7 11 8 0 12 -6 9 -12 -2 -7 3 -15 11 -18 11 -4 13 -1 10 11 -3 9 1
7 8 -6 8 -12 17 -20 21 -16 3 4 18 -1 33 -11 15 -9 24 -12 20 -7 -4 6 2 10 13
9 15 -1 17 -4 9 -14 -8 -10 -7 -12 5 -7 9 3 23 -1 32 -9 8 -9 24 -13 35 -10
14 4 20 1 18 -8 -2 -7 2 -14 7 -14 30 -4 64 -18 60 -25 -6 -10 15 -7 34 4 9 6
12 5 8 -1 -4 -6 0 -13 8 -16 10 -4 12 -1 9 11 -3 9 1 6 9 -7 9 -15 17 -20 21
-12 4 6 12 11 18 11 7 0 6 -6 -2 -15 -7 -8 -11 -15 -9 -16 43 -8 53 -8 39 1
-8 5 -10 10 -5 10 13 -1 46 -26 40 -31 -2 -3 4 -5 15 -5 14 0 16 3 8 13 -8 10
-7 12 6 7 9 -3 16 -9 16 -13 0 -3 9 -12 21 -19 12 -8 18 -9 14 -3 -3 6 -1 11
4 11 6 0 11 -4 11 -10 0 -5 5 -10 11 -10 5 0 7 5 4 10 -3 6 -1 10 4 10 6 0 11
-8 11 -17 0 -15 2 -14 14 3 14 19 14 19 13 -1 -1 -13 3 -19 13 -16 34 8 60 9
55 1 -3 -5 -12 -7 -20 -3 -8 3 -15 0 -15 -5 0 -14 15 -23 24 -15 4 4 16 8 27
10 16 2 20 -1 15 -12 -3 -8 -1 -15 4 -15 6 0 10 5 10 11 0 8 6 7 17 -2 10 -8
14 -9 10 -2 -4 6 -2 15 4 19 7 4 9 3 6 -2 -3 -6 -2 -16 4 -24 6 -10 9 -11 9
-2 0 6 5 12 11 12 5 0 8 -4 5 -9 -3 -5 1 -11 9 -15 8 -3 17 0 21 6 5 7 2 8 -6
3 -9 -6 -11 -4 -5 4 5 9 13 7 29 -8 18 -17 25 -18 36 -8 10 9 12 9 6 -1 -5 -7
0 -13 11 -14 10 0 25 -2 33 -2 8 -1 14 -8 12 -15 -1 -7 2 -10 8 -6 6 3 8 11 5
16 -4 5 -1 9 4 9 6 0 11 -6 11 -12 0 -9 4 -8 10 2 9 13 10 13 11 0 1 -8 1 -19
0 -23 -1 -5 3 -6 9 -2 6 3 8 11 5 16 -3 5 1 6 9 3 9 -3 14 -10 11 -14 -6 -10
15 -7 34 4 10 6 12 5 7 -2 -4 -7 -4 -12 1 -13 4 0 16 -2 26 -4 12 -2 17 1 14
9 -3 7 1 13 9 13 7 0 11 -3 9 -7 -2 -3 0 -12 6 -20 6 -10 9 -11 9 -2 0 6 5 12
10 12 6 0 9 -3 8 -7 -2 -5 2 -8 7 -8 6 0 9 3 7 8 -1 4 2 7 8 7 5 0 10 -5 10
-12 0 -9 3 -9 12 0 7 7 17 12 23 12 5 0 3 -5 -5 -11 -12 -9 -11 -10 8 -6 12 3
20 1 17 -3 -3 -5 -1 -11 5 -15 9 -6 15 8 11 29 -1 5 5 4 13 -4 19 -15 21 -24
4 -14 -7 5 -8 3 -4 -5 6 -9 12 -9 25 3 22 20 31 20 31 0 0 -8 4 -12 10 -9 6 3
10 3 10 -2 0 -4 29 -7 65 -6 35 1 64 -2 62 -7 -1 -4 3 -7 8 -6 6 0 9 4 7 9 -1
4 2 7 8 7 5 0 10 -4 10 -10 0 -5 5 -10 11 -10 5 0 8 4 5 8 -2 4 4 8 15 8 13 0
18 -5 14 -16 -5 -12 -4 -12 6 -3 9 9 16 9 25 2 8 -7 14 -6 20 2 4 8 3 9 -4 5
-8 -5 -10 -2 -6 8 5 13 9 12 24 -6 9 -12 27 -22 38 -23 15 -1 19 2 12 10 -14
17 64 12 86 -5 11 -9 15 -10 10 -3 -8 14 6 18 18 6 8 -9 66 -12 66 -3 0 3 -6
13 -12 21 -11 12 -11 12 2 2 7 -7 22 -13 32 -13 10 0 18 -6 18 -12 0 -9 3 -9
9 1 5 8 16 11 26 7 10 -3 23 -2 30 4 10 8 15 8 21 -1 5 -8 3 -9 -6 -4 -8 5
-11 4 -6 -3 6 -11 26 -10 59 3 11 5 17 2 17 -6 0 -11 3 -11 10 1 8 12 11 13
19 1 6 -10 10 -10 13 -1 2 6 18 13 35 14 18 1 30 -2 27 -6 -3 -4 0 -9 5 -9 6
-1 17 -2 24 -3 6 -1 17 2 24 7 15 11 74 16 67 6 -2 -4 3 -9 11 -13 8 -3 17 0
21 6 4 7 3 8 -4 4 -8 -5 -10 -1 -5 10 5 14 8 13 19 -7 7 -13 13 -18 14 -11 0
6 11 12 25 12 14 0 25 -6 25 -12 0 -9 4 -8 10 2 8 13 13 13 31 2 11 -8 18 -9
14 -3 -3 6 1 11 9 11 9 0 16 -6 16 -12 0 -9 4 -8 10 2 8 13 13 13 31 2 19 -12
21 -12 16 2 -8 20 -3 20 17 0 9 -8 16 -11 16 -5 0 6 5 11 11 11 5 0 7 -6 3
-12 -6 -10 -4 -10 7 -1 17 17 32 17 23 0 -6 -8 -3 -8 9 1 9 8 39 15 67 16 38
2 46 1 35 -8 -12 -9 -8 -11 21 -11 21 1 41 7 48 17 10 13 15 14 29 3 9 -6 15
-14 12 -17 -3 -2 2 -5 10 -5 8 0 12 4 9 9 -3 4 2 8 10 8 9 0 16 -6 16 -12 0
-9 3 -9 9 1 5 8 16 11 26 7 10 -3 23 -2 30 4 10 8 15 8 21 -1 5 -8 3 -9 -6 -4
-8 5 -11 4 -6 -3 6 -11 26 -10 59 3 11 5 17 2 17 -6 0 -11 3 -11 10 1 8 12 11
13 19 1 6 -10 10 -10 13 -1 2 6 18 13 35 14 18 1 30 -2 27 -6 -3 -4 0 -9 5 -9
6 -1 17 -2 24 -3 6 -1 17 2 24 7 15 11 74 16 67 6 -2 -4 3 -9 11 -13 8 -3 17
0 21 6 4 7 3 8 -4 4 -8 -5 -10 -1 -5 10 5 14 8 13 19 -7 7 -13 13 -18 14 -11
0 6 11 12 25 12 14 0 25 -6 25 -12 0 -9 4 -8 10 2 8 13 13 13 31 2 11 -8 18
-9 14 -3 -3 6 1 11 9 11 9 0 16 -6 16 -12 0 -9 4 -8 10 2 8 13 13 13 31 2 19
-12 21 -12 16 2 -8 20 -3 20 17 0 9 -8 16 -11 16 -5 0 6 5 11 11 11 5 0 7 -6
3 -12 -6 -10 -4 -10 7 0 17 16 32 16 23 -1 -6 -8 -3 -8 9 1 9 8 39 15 67 16
38 2 46 1 35 -8 -12 -9 -8 -11 21 -11 21 1 41 7 48 17 10 13 15 14 29 3 9 -6
15 -14 12 -17 -3 -2 2 -5 10 -5 8 0 12 4 9 9 -3 4 2 8 10 8 9 0 16 -6 16 -12
0 -9 3 -9 9 1 5 8 16 11 26 7 10 -3 23 -2 30 4 10 8 15 8 21 -1 5 -8 3 -9 -6
-4 -8 5 -11 4 -6 -3 6 -11 26 -10 59 3 11 5 17 2 17 -6 0 -11 3 -11 10 1 8 12
11 13 19 1 6 -10 10 -10 13 -1 2 6 18 13 35 14 18 1 30 -2 27 -6 -3 -4 0 -9 5
-9 6 -1 17 -2 24 -3 6 -1 17 2 24 7 15 11 74 16 67 6 -2 -4 3 -9 11 -13 8 -3
17 0 21 6 4 7 3 8 -4 4 -8 -5 -10 -1 -5 10 5 14 8 13 19 -7 7 -13 13 -18 14
-11 0 6 11 12 25 12 14 0 25 -6 25 -12 0 -9 4 -8 10 2 8 13 13 13 31 2 11 -8
18 -9 14 -3 -3 6 1 11 9 11 9 0 16 -6 16 -12 0 -9 4 -8 10 2 8 13 13 13 31 2
19 -12 21 -12 16 2 -8 20 -3 20 17 0 9 -8 16 -11 16 -5 0 6 5 11 11 11 5 0 7
-6 3 -12 -6 -10 -4 -10 7 0 7 6 17 12 22 12 4 0 5 -6 1 -12 -6 -9 -3 -9 9 0 9
8 39 15 67 16 38 2 46 1 35 -8 -12 -9 -8 -11 21 -11 21 1 41 7 48 17 10 13 15
14 29 3 9 -6 15 -14 12 -17 -3 -2 2 -5 10 -5 8 0 12 4 9 9 -3 4 2 8 10 8 9 0
16 -6 16 -12 0 -9 3 -9 9 1 5 8 16 11 26 7 10 -3 23 -2 30 4 10 8 15 8 21 -1
5 -8 3 -9 -6 -4 -8 5 -11 4 -6 -3 6 -11 26 -10 59 3 11 5 17 2 17 -6 0 -11 3
-11 10 1 8 12 11 13 19 1 6 -10 10 -10 13 -1 2 6 18 13 35 14 18 1 30 -2 27
-6 -3 -4 0 -9 5 -9 6 -1 17 -2 24 -3 6 -1 17 2 24 7 15 11 74 16 67 6 -2 -4 3
-9 11 -13 8 -3 17 0 21 6 4 7 3 8 -4 4 -8 -5 -10 -1 -5 10 5 14 8 13 19 -7 7
-13 13 -18 14 -11 0 6 11 12 25 12 14 0 25 -6 25 -12 0 -9 4 -8 10 2 8 13 13
13 31 2 11 -8 18 -9 14 -3 -3 6 1 11 9 11 9 0 16 -6 16 -12 0 -9 4 -8 10 2 8
13 13 13 31 2 19 -12 21 -12 16 2 -8 20 -3 20 17 0 9 -8 16 -11 16 -5 0 6 5
11 11 11 5 0 7 -6 3 -12 -6 -10 -4 -10 7 0 7 6 17 12 22 12 4 0 5 -6 1 -12 -6
-9 -3 -9 9 0 9 8 39 15 67 16 38 2 46 1 35 -8 -12 -9 -8 -11 21 -11 21 1 41 7
48 17 10 13 15 14 29 3 9 -6 15 -14 12 -17 -3 -2 2 -5 10 -5 8 0 12 4 9 9 -3
4 2 8 10 8 9 0 16 -6 16 -12 0 -9 3 -9 9 1 5 8 16 11 26 7 10 -3 23 -2 30 4
10 8 15 8 21 -1 5 -8 3 -9 -6 -4 -8 5 -11 4 -6 -3 6 -11 26 -10 59 3 11 5 17
2 17 -6 0 -11 3 -11 10 1 8 12 11 13 19 1 6 -10 10 -10 13 -1 2 6 18 13 35 14
18 1 30 -2 27 -6 -3 -4 0 -9 5 -9 6 -1 17 -2 24 -3 6 -1 17 2 24 7 15 11 74
16 67 6 -2 -4 3 -9 11 -13 8 -3 17 0 21 6 4 7 3 8 -4 4 -8 -5 -10 -1 -5 10 5
14 8 13 19 -7 7 -13 13 -18 14 -11 0 6 11 12 25 12 14 0 25 -6 25 -12 0 -9 4
-8 10 2 8 13 13 13 31 2 11 -8 18 -9 14 -3 -3 6 1 11 9 11 9 0 16 -6 16 -12 0
-9 4 -8 10 2 8 13 13 13 31 2 11 -8 18 -9 14 -3 -3 6 1 11 9 11 9 0 16 -6 16
-12 0 -9 4 -8 10 2 8 13 13 13 31 2 11 -8 18 -9 14 -3 -3 6 1 11 9 11 9 0 16
-6 16 -12 0 -9 3 -9 9 1 5 8 15 11 23 8 8 -3 21 -1 28 3 8 5 23 4 34 -3 27
-14 48 -18 40 -6 -4 8 7 13 26 11 3 0 6 8 6 19 0 10 -5 19 -11 20 -5 0 -1 4
10 9 11 5 14 9 8 9 -9 1 -11 12 -7 37 3 20 2 34 -3 31 -5 -3 -8 7 -7 21 1 15
3 33 3 40 1 7 6 10 13 6 7 -4 8 -3 4 5 -4 6 -11 9 -16 6 -5 -3 -11 -1 -14 4
-3 5 3 11 14 14 13 3 18 10 14 21 -3 9 -11 13 -18 9 -6 -4 -5 1 3 10 11 14 11
17 0 17 -8 0 -5 6 7 14 10 8 16 18 11 22 -4 4 -7 2 -7 -4 0 -7 -4 -12 -10 -12
-5 0 -6 7 -3 17 5 12 3 14 -8 9 -8 -4 -3 1 10 12 18 14 21 21 11 27 -9 6 -11
4 -5 -5 5 -9 4 -11 -3 -6 -9 5 -9 13 -2 27 10 17 7 23 -11 21 -3 -1 -6 5 -6
13 0 8 4 12 8 9 4 -2 9 -1 12 3 2 5 2 1 0 -7 -3 -11 -1 -12 8 -3 12 12 3 37
-11 28 -5 -3 -11 -1 -14 4 -3 5 3 11 14 14 13 3 18 10 14 21 -3 9 -10 13 -15
10 -5 -3 -6 2 -3 10 3 9 11 13 17 9 6 -3 7 -1 3 6 -4 6 -11 9 -16 6 -5 -3 -11
-1 -14 4 -3 5 3 11 14 14 13 3 18 10 14 21 -3 9 -11 13 -18 9 -6 -4 -5 1 3 10
11 14 11 17 0 17 -8 0 -5 6 7 14 10 8 16 18 11 22 -4 4 -7 2 -7 -4 0 -7 -4
-12 -10 -12 -5 0 -6 7 -3 17 5 12 3 14 -8 9 -8 -4 -3 1 10 12 18 14 21 21 11
27 -9 6 -11 4 -5 -5 5 -9 4 -11 -3 -6 -9 5 -9 13 -2 27 10 17 7 23 -11 21 -3
-1 -6 5 -6 13 0 8 4 12 8 9 4 -2 9 -1 12 3 2 5 2 1 0 -7 -3 -11 -1 -12 8 -3
12 12 3 37 -11 28 -5 -3 -11 -1 -14 4 -3 5 3 11 14 14 13 3 18 10 14 21 -3 9
-10 13 -15 10 -5 -3 -6 2 -3 10 3 9 11 13 17 9 6 -3 7 -1 3 6 -4 6 -11 9 -16
6 -5 -3 -11 -1 -14 4 -3 5 3 11 14 14 13 3 18 10 14 21 -3 9 -11 13 -18 9 -6
-4 -5 1 3 10 11 14 11 17 0 17 -8 0 -5 6 7 14 10 8 16 18 11 22 -4 4 -7 2 -7
-4 0 -7 -4 -12 -10 -12 -5 0 -6 7 -3 17 5 12 3 14 -8 9 -8 -4 -3 1 10 12 18
14 21 21 11 27 -9 6 -11 4 -5 -5 5 -9 4 -11 -3 -6 -9 5 -9 13 -2 27 10 17 7
23 -11 21 -3 -1 -6 5 -6 13 0 8 4 12 8 9 4 -2 9 -1 12 3 2 5 2 1 0 -7 -3 -11
-1 -12 8 -3 12 12 3 37 -11 28 -5 -3 -11 -1 -14 4 -3 5 3 11 14 14 13 3 18 10
14 21 -3 9 -10 13 -15 10 -5 -3 -6 2 -3 10 3 9 11 13 17 9 6 -3 7 -1 3 6 -4 6
-11 9 -16 6 -5 -3 -11 -1 -14 4 -3 5 3 11 14 14 13 3 18 10 14 21 -3 9 -11 13
-18 9 -6 -4 -5 1 3 10 11 14 11 17 0 17 -8 0 -5 6 7 14 10 8 16 18 11 22 -4 4
-7 2 -7 -4 0 -7 -4 -12 -10 -12 -5 0 -6 7 -3 17 5 12 3 14 -8 9 -8 -4 -3 1 10
12 18 14 21 21 11 27 -9 6 -11 4 -5 -5 5 -9 4 -11 -3 -6 -9 5 -9 13 -2 27 10
17 7 23 -11 21 -3 -1 -6 5 -6 13 0 8 4 12 8 9 4 -2 9 -1 12 3 2 5 2 1 0 -7 -3
-11 -1 -12 8 -3 12 12 3 37 -11 28 -5 -3 -11 -1 -14 4 -3 5 3 11 14 14 13 3
18 10 14 21 -3 9 -10 13 -15 10 -5 -3 -6 2 -3 10 3 9 11 13 17 9 6 -3 7 -1 3
6 -4 6 -11 9 -16 6 -5 -3 -11 -1 -14 4 -3 5 3 11 14 14 13 3 18 10 14 21 -3 9
-11 13 -18 9 -6 -4 -5 1 3 10 11 14 11 17 0 17 -8 0 -5 6 7 14 10 8 16 18 11
22 -4 4 -7 2 -7 -4 0 -7 -4 -12 -10 -12 -5 0 -6 7 -3 17 5 12 3 14 -8 9 -8 -4
-3 1 10 12 18 14 21 21 11 27 -9 6 -11 4 -5 -5 5 -9 4 -11 -3 -6 -9 5 -9 13
-2 27 10 17 7 23 -11 21 -3 -1 -6 5 -6 13 0 8 4 12 8 9 4 -2 9 -1 12 3 2 5 2
1 0 -7 -3 -11 -1 -12 8 -3 12 12 3 37 -11 28 -5 -3 -11 -1 -14 4 -3 5 3 11 14
14 13 3 18 10 14 21 -3 9 -10 13 -15 10 -5 -3 -6 2 -3 10 3 9 11 13 17 9 6 -3
7 -1 3 6 -4 6 -11 9 -16 6 -5 -3 -11 -1 -14 4 -3 5 3 11 14 14 13 3 18 10 14
21 -3 9 -11 13 -18 9 -6 -4 -5 1 3 10 11 14 11 17 0 17 -8 0 -5 6 7 14 10 8
16 18 11 22 -4 4 -7 2 -7 -4 0 -7 -4 -12 -10 -12 -5 0 -6 7 -3 17 5 12 3 14
-8 9 -8 -4 -3 1 10 12 18 14 21 21 11 27 -9 6 -11 4 -5 -5 5 -9 4 -11 -3 -6
-9 5 -9 13 -2 27 10 17 7 23 -11 21 -3 -1 -6 5 -6 13 0 8 4 12 8 9 4 -2 9 -1
12 3 2 5 2 1 0 -7 -3 -11 -1 -12 8 -3 12 12 3 37 -11 28 -5 -3 -11 -1 -14 4
-3 5 3 11 14 14 13 3 18 10 14 21 -3 9 -10 13 -15 10 -5 -3 -6 2 -3 10 3 9 11
13 17 9 6 -3 7 -1 3 6 -4 6 -11 9 -16 6 -5 -3 -11 -1 -14 4 -3 5 3 11 14 14
13 3 18 10 14 21 -3 9 -11 13 -18 9 -6 -4 -5 1 3 10 11 14 11 17 0 17 -8 0 -5
6 7 14 10 8 16 18 11 22 -4 4 -7 2 -7 -4 0 -7 -4 -12 -10 -12 -5 0 -6 7 -3 17
5 12 3 14 -8 9 -8 -4 -3 1 10 12 18 14 21 21 11 27 -9 6 -11 4 -5 -5 5 -9 4
-11 -3 -6 -9 5 -9 13 -2 27 10 17 7 23 -11 21 -3 -1 -6 5 -6 13 0 8 4 12 8 9
4 -2 9 -1 12 3 2 5 2 1 0 -7 -3 -11 -1 -12 8 -3 12 12 3 37 -11 28 -5 -3 -11
-1 -14 4 -3 5 3 11 14 14 13 3 18 10 14 21 -3 9 -10 13 -15 10 -5 -3 -6 2 -3
10 3 9 11 13 17 9 6 -3 7 -1 3 6 -4 6 -11 9 -16 6 -5 -3 -11 -1 -14 4 -3 5 3
11 14 14 13 3 18 10 14 21 -3 9 -11 13 -18 9 -6 -4 -5 1 3 10 11 14 11 17 0
17 -8 0 -5 6 7 14 10 8 16 18 11 22 -4 4 -7 2 -7 -4 0 -7 -4 -12 -10 -12 -5 0
-6 7 -3 17 5 12 3 14 -8 9 -8 -4 -3 1 10 12 18 14 21 21 11 27 -9 6 -11 4 -5
-5 5 -9 4 -11 -3 -6 -9 5 -9 13 -2 27 10 17 7 23 -11 21 -3 -1 -6 5 -6 13 0 8
4 12 8 9 4 -2 9 -1 12 3 2 5 2 1 0 -7 -3 -11 -1 -12 8 -3 12 12 3 37 -11 28
-5 -3 -11 -1 -14 4 -3 5 3 11 14 14 13 3 18 10 14 21 -3 9 -10 13 -15 10 -5
-3 -6 2 -3 10 3 9 11 13 17 9 6 -3 7 -1 3 6 -4 6 -11 9 -16 6 -5 -3 -11 -1
-14 4 -3 5 3 11 14 14 13 3 18 10 14 21 -3 9 -11 13 -18 9 -6 -4 -5 1 3 10 11
14 11 17 0 17 -8 0 -5 6 7 14 10 8 16 18 11 22 -4 4 -7 2 -7 -4 0 -7 -4 -12
-10 -12 -5 0 -6 7 -3 17 5 12 3 14 -8 9 -8 -4 -3 1 10 12 18 14 21 21 11 27
-9 6 -11 4 -5 -5 5 -9 4 -11 -3 -6 -9 5 -9 13 -2 27 10 17 7 23 -11 21 -3 -1
-6 5 -6 13 0 8 4 12 8 9 4 -2 9 -1 12 3 2 5 2 1 0 -7 -3 -11 -1 -12 8 -3 12
12 3 37 -11 28 -5 -3 -11 -1 -14 4 -3 5 3 11 14 14 13 3 18 10 14 21 -3 9 -10
13 -15 10 -5 -3 -6 2 -3 10 3 9 11 13 17 9 6 -3 7 -1 3 6 -4 6 -11 9 -16 6 -5
-3 -11 -1 -14 4 -3 5 3 11 14 14 13 3 18 10 14 21 -3 9 -11 13 -18 9 -6 -4 -5
1 3 10 11 14 11 17 0 17 -8 0 -5 6 7 14 10 8 16 18 11 22 -4 4 -7 2 -7 -4 0
-7 -4 -12 -10 -12 -5 0 -6 7 -3 17 5 12 3 14 -8 9 -8 -4 -3 1 10 12 18 14 21
21 11 27 -9 6 -11 4 -5 -5 5 -9 4 -11 -3 -6 -9 5 -9 13 -2 27 10 17 7 23 -11
21 -3 -1 -6 5 -6 13 0 8 4 12 8 9 4 -2 9 -1 12 3 2 5 2 1 0 -7 -3 -11 -1 -12
8 -3 12 12 3 37 -11 28 -5 -3 -11 -1 -14 4 -3 5 3 11 14 14 13 3 18 10 14 21
-3 9 -10 13 -15 10 -5 -3 -6 2 -3 10 3 9 11 13 17 9 6 -3 7 -1 3 6 -4 6 -11 9
-16 6 -5 -3 -11 -1 -14 4 -3 5 3 11 14 14 13 3 18 10 14 21 -3 9 -11 13 -18 9
-6 -4 -5 1 3 10 11 14 11 17 0 17 -8 0 -5 6 7 14 10 8 16 18 11 22 -4 4 -7 2
-7 -4 0 -7 -4 -12 -10 -12 -5 0 -6 7 -3 17 5 12 3 14 -8 9 -8 -4 -3 1 10 12
18 14 21 21 11 27 -9 6 -11 4 -5 -5 5 -9 4 -11 -3 -6 -9 5 -9 13 -2 27 10 17
7 23 -11 21 -3 -1 -6 5 -6 13 0 8 4 12 8 9 4 -2 9 -1 12 3 2 5 2 1 0 -7 -3
-11 -1 -12 8 -3 12 12 3 37 -11 28 -5 -3 -11 -1 -14 4 -3 5 3 11 14 14 13 3
18 10 14 21 -3 9 -10 13 -15 10 -5 -3 -6 2 -3 10 3 9 11 13 17 9 6 -3 7 -1 3
6 -4 6 -11 9 -16 6 -5 -3 -11 -1 -14 4 -3 5 3 11 14 14 13 3 18 10 14 21 -3 9
-11 13 -18 9 -6 -4 -5 1 3 10 11 14 11 17 0 17 -8 0 -5 6 7 14 10 8 16 18 11
22 -4 4 -7 2 -7 -4 0 -7 -4 -12 -10 -12 -5 0 -6 7 -3 17 5 12 3 14 -8 9 -8 -4
-3 1 10 12 18 14 21 21 11 27 -9 6 -11 4 -5 -5 5 -9 4 -11 -3 -6 -9 5 -9 13
-2 27 10 17 7 23 -11 21 -3 -1 -6 5 -6 13 0 8 4 12 8 9 4 -2 9 -1 12 3 2 5 2
1 0 -7 -3 -11 -1 -12 8 -3 12 12 3 37 -11 28 -5 -3 -11 -1 -14 4 -3 5 3 11 14
14 13 3 18 10 14 21 -3 9 -10 13 -15 10 -5 -3 -6 2 -3 10 3 9 11 13 17 9 6 -3
7 -1 3 6 -4 6 -11 9 -16 6 -5 -3 -11 -1 -14 4 -3 5 3 11 14 14 13 3 18 10 14
21 -3 9 -11 13 -18 9 -6 -4 -5 1 3 10 11 14 11 17 0 17 -8 0 -5 6 7 14 10 8
16 18 11 22 -4 4 -7 2 -7 -4 0 -7 -4 -12 -10 -12 -5 0 -6 7 -3 17 5 12 3 14
-8 9 -8 -4 -3 1 10 12 18 14 21 21 11 27 -9 6 -11 4 -5 -5 5 -9 4 -11 -3 -6
-9 5 -9 13 -2 27 10 17 7 23 -11 21 -3 -1 -6 5 -6 13 0 8 4 12 8 9 4 -2 9 -1
12 3 2 5 2 1 0 -7 -3 -11 -1 -12 8 -3 12 12 3 37 -11 28 -5 -3 -11 -1 -14 4
-3 5 3 11 14 14 13 3 18 10 14 21 -3 9 -10 13 -15 10 -5 -3 -6 2 -3 10 3 9 11
13 17 9 6 -3 7 -1 3 6 -4 6 -11 9 -16 6 -5 -3 -11 -1 -14 4 -3 5 3 11 14 14
13 3 18 10 14 21 -3 9 -11 13 -18 9 -6 -4 -5 1 3 10 11 14 11 17 0 17 -8 0 -5
6 7 14 10 8 16 18 11 22 -4 4 -7 2 -7 -4 0 -7 -4 -12 -10 -12 -5 0 -6 7 -3 17
5 12 3 14 -8 9 -8 -4 -3 1 10 12 18 14 21 21 11 27 -9 6 -11 4 -5 -5 5 -9 4
-11 -3 -6 -9 5 -9 13 -2 27 10 17 7 23 -11 21 -3 -1 -6 5 -6 13 0 8 4 12 8 9
4 -2 9 -1 12 3 2 5 2 1 0 -7 -3 -11 -1 -12 8 -3 12 12 3 37 -11 28 -5 -3 -11
-1 -14 4 -3 5 3 11 14 14 13 3 18 10 14 21 -3 9 -10 13 -15 10 -5 -3 -6 2 -3
10 3 9 11 13 17 9 6 -3 7 -1 3 6 -4 6 -11 9 -16 6 -5 -3 -11 -1 -14 4 -3 5 3
11 14 14 13 3 18 10 14 21 -3 9 -11 13 -18 9 -6 -4 -5 1 3 10 11 14 11 17 0
17 -8 0 -5 6 7 14 10 8 16 18 11 22 -4 4 -7 2 -7 -4 0 -7 -4 -12 -10 -12 -5 0
-6 7 -3 17 5 12 3 14 -8 9 -8 -4 -6 -1 3 7 13 10 15 16 6 25 -9 9 -9 12 0 12
7 0 12 4 12 10 0 5 -8 7 -17 4 -14 -5 -15 -4 -4 4 8 6 12 19 8 31 -3 12 0 24
5 28 7 4 8 1 3 -7 -5 -9 -4 -11 4 -6 9 6 9 11 0 22 -14 17 -23 19 -13 2 4 -7
3 -8 -5 -4 -9 6 -9 11 0 22 8 10 8 14 0 14 -6 0 -11 5 -11 11 0 5 3 8 8 6 4
-3 7 19 7 49 0 43 -3 53 -14 49 -10 -4 -8 2 5 16 10 12 13 19 5 14 -11 -6 -13
-3 -8 14 4 17 2 20 -7 12 -9 -8 -13 -7 -13 4 0 8 6 15 14 15 7 0 13 4 13 10 0
5 -6 7 -13 4 -8 -3 -14 2 -14 10 0 8 4 13 9 10 4 -3 8 -1 8 5 0 5 -7 14 -16
19 -11 6 -13 11 -5 16 6 4 11 2 11 -3 0 -6 5 -11 12 -11 6 0 3 9 -7 20 -19 21
-30 54 -15 45 4 -3 10 2 13 10 4 10 1 12 -11 8 -13 -5 -14 -3 -6 6 9 10 9 19
-2 39 -7 14 -10 30 -6 36 10 17 11 37 1 30 -6 -3 -8 5 -5 20 3 17 -1 29 -12
36 -10 5 -12 10 -4 10 6 0 12 5 12 11 0 5 -6 7 -12 3 -7 -4 -10 -4 -6 1 4 4 2
15 -5 23 -10 13 -9 14 10 3 19 -9 22 -9 17 3 -3 7 -15 18 -26 23 -20 8 -20 10
-4 16 11 5 15 3 10 -5 -4 -7 -3 -8 5 -4 6 4 9 12 5 17 -3 5 -9 7 -13 5 -4 -3
-6 20 -6 50 1 41 -2 54 -11 50 -10 -4 -11 1 -4 19 6 15 6 27 -1 30 -5 4 -6 11
-3 17 5 8 1 9 -11 4 -15 -5 -16 -4 -6 8 9 11 9 16 0 22 -8 5 -9 3 -4 -6 6 -9
4 -11 -5 -5 -10 6 -10 11 4 20 14 10 14 14 3 18 -8 3 -21 0 -28 -6 -10 -10
-10 -8 0 6 8 9 11 20 8 24 -4 3 -2 14 4 24 7 14 6 17 -5 13 -8 -3 -17 0 -21 6
-3 6 -1 9 6 8 6 -2 14 3 17 11 2 8 0 11 -6 8 -10 -7 -26 28 -22 48 5 27 4 30
-6 28 -6 -1 -9 13 -7 34 2 28 0 34 -9 25 -15 -15 -28 -15 -28 -1 0 5 4 8 9 5
11 -7 20 14 14 32 -3 6 -10 9 -16 5 -7 -4 -7 -1 1 9 10 13 10 18 1 24 -8 5
-10 3 -4 -7 5 -8 4 -10 0 -6 -12 10 -16 39 -5 32 5 -3 12 0 16 6 4 8 3 9 -4 5
-11 -6 -17 13 -13 37 1 5 -4 5 -10 1 -9 -5 -10 -2 -6 9 3 9 2 19 -4 23 -6 3
-8 13 -4 21 4 13 3 14 -10 3 -9 -7 -18 -10 -22 -6 -3 3 -1 6 5 6 7 0 12 11 12
25 0 14 -4 25 -10 25 -5 0 -10 12 -10 26 0 14 -4 23 -9 20 -5 -3 -12 1 -15 10
-9 23 -7 31 3 16 7 -11 9 -11 14 2 4 9 3 15 -1 15 -4 -1 -14 -1 -22 0 -13 1
-13 2 0 11 10 6 11 10 3 10 -7 0 -13 9 -13 21 0 13 -4 18 -12 13 -10 -6 -10
-5 0 8 10 12 9 18 -3 28 -12 10 -13 15 -3 28 11 13 10 14 -8 4 -16 -9 -21 -8
-21 3 0 8 5 11 11 8 6 -4 5 0 -1 9 -7 8 -10 18 -6 21 3 4 1 7 -6 7 -7 0 -9 5
-6 10 3 6 -2 10 -12 10 -15 0 -16 2 -3 10 8 5 10 10 4 10 -6 0 -11 12 -11 26
0 15 -8 31 -17 36 -9 5 -13 14 -10 20 5 8 1 9 -12 4 -10 -4 -15 -4 -11 0 4 4
2 13 -4 20 -7 8 -7 14 1 19 7 4 6 13 -2 28 -7 12 -13 25 -14 30 -1 4 -3 10 -4
15 -1 4 -2 10 -1 14 0 5 -5 7 -12 5 -6 -1 -12 7 -12 18 0 12 -7 20 -16 19 -10
-1 -14 7 -13 26 2 23 -2 28 -20 26 -18 -2 -21 2 -20 28 1 22 -5 35 -20 44 -13
8 -15 11 -4 8 12 -3 15 -1 12 9 -3 8 -12 11 -19 9 -7 -3 -16 0 -21 7 -4 8 -3
10 4 5 7 -4 12 -1 12 8 0 8 -5 18 -12 22 -7 4 -8 3 -4 -4 11 -18 0 -14 -15 5
-12 14 -12 16 0 9 9 -6 12 -5 9 5 -3 8 -13 13 -23 12 -12 -1 -14 2 -6 10 15
15 14 30 -2 24 -8 -3 -14 1 -14 9 0 7 4 11 9 8 4 -3 8 0 8 5 0 6 -9 11 -21 11
-11 0 -17 5 -14 10 3 6 3 16 -2 23 -4 6 -8 18 -9 24 -3 16 -30 44 -37 37 -2
-3 -7 2 -11 11 -4 11 -2 14 7 10 6 -4 2 2 -10 13 -13 11 -23 27 -23 36 0 8 -5
18 -10 21 -6 4 -8 11 -5 16 4 5 -2 6 -11 2 -14 -5 -16 -3 -11 11 6 14 3 16
-16 11 -17 -5 -19 -4 -7 5 13 9 13 12 -2 24 -10 7 -15 16 -11 19 3 4 1 7 -5 7
-7 0 -12 -5 -12 -12 0 -6 -3 -8 -6 -5 -4 4 -1 13 5 21 10 12 8 17 -9 26 -12 6
-19 14 -16 17 6 7 -19 33 -32 33 -5 0 -16 8 -23 18 -13 15 -12 16 4 3 22 -18
22 -10 -1 17 -13 14 -22 18 -29 11 -6 -6 -10 -5 -10 5 0 8 4 13 8 10 4 -2 10
0 14 6 3 5 1 11 -4 11 -6 1 -17 2 -23 3 -7 1 -12 9 -10 19 2 10 -3 17 -13 17
-8 0 -15 5 -15 11 0 5 -6 7 -12 3 -9 -5 -9 -2 1 9 8 10 9 17 3 17 -6 0 -14 9
-17 21 -6 17 -9 18 -22 7 -15 -12 -15 -10 -3 12 12 22 11 24 -2 13 -19 -17
-31 -4 -15 15 10 13 9 15 -5 9 -13 -4 -15 -2 -11 10 5 12 2 15 -10 10 -11 -4
-20 1 -27 14 -6 11 -15 17 -19 15 -5 -3 -8 7 -7 22 1 21 -4 28 -23 30 -19 3
-21 6 -10 13 11 7 11 9 1 9 -18 0 -45 28 -37 39 3 5 0 13 -6 17 -8 4 -9 3 -5
-4 4 -7 2 -12 -3 -12 -6 0 -11 5 -11 11 0 5 -6 7 -12 3 -8 -5 -7 0 2 11 9 11
10 16 2 11 -7 -4 -15 -1 -18 8 -3 9 -11 16 -16 16 -16 0 -58 37 -51 44 7 7
-44 56 -59 56 -4 0 -8 8 -8 18 0 14 -2 15 -10 2 -8 -12 -10 -11 -10 8 0 23
-35 45 -54 34 -5 -3 -6 0 -2 7 4 6 13 8 19 4 7 -4 -8 14 -32 40 -25 26 -51 47
-57 47 -7 0 -16 5 -20 12 -5 7 -2 9 7 4 8 -4 1 3 -15 16 -16 13 -40 35 -54 50
-13 15 -30 24 -37 22 -7 -3 -16 0 -21 7 -5 8 -3 10 7 4 12 -7 12 -6 1 6 -7 8
-17 14 -23 14 -5 0 -9 4 -8 9 1 16 -25 25 -38 14 -10 -8 -12 -7 -7 6 4 10 1
16 -8 16 -7 0 -20 9 -28 20 -15 21 -36 28 -24 8 4 -7 3 -8 -5 -4 -6 4 -9 12
-6 17 4 5 -1 12 -9 15 -9 3 -14 10 -11 14 3 4 -3 14 -12 21 -12 10 -14 10 -9
2 12 -21 -5 -15 -25 9 -11 11 -19 17 -19 13 0 -5 -9 1 -21 13 -11 12 -25 19
-31 16 -7 -5 -9 -1 -5 9 4 12 2 14 -10 10 -9 -4 -14 -2 -10 3 3 6 -3 16 -15
23 -15 9 -18 9 -13 0 5 -7 3 -10 -6 -7 -8 3 -13 14 -11 24 3 18 3 18 -13 -1
-9 -11 -14 -15 -11 -9 6 13 -33 68 -42 60 -3 -3 -12 0 -21 7 -14 10 -14 10 -4
-4 10 -13 10 -16 -2 -16 -7 0 -14 3 -13 6 2 22 -4 32 -16 28 -8 -3 -20 2 -28
11 -12 15 -11 16 4 4 12 -10 18 -10 24 -1 4 7 3 9 -4 5 -6 -3 -14 -1 -17 4 -5
8 -13 6 -26 -6 -11 -10 -19 -12 -19 -6 0 7 5 12 10 12 6 0 10 8 9 18 0 9 -3
12 -5 5 -3 -7 -12 -9 -20 -6 -7 3 -11 10 -7 16 4 6 0 8 -10 4 -12 -4 -17 -1
-17 10 0 12 -3 13 -14 4 -11 -10 -17 -7 -30 10 -8 12 -12 27 -9 32 3 6 1 7 -5
3 -7 -4 -12 -2 -12 5 0 7 -3 9 -6 6 -4 -4 -1 -13 6 -22 11 -13 10 -14 -4 -9
-9 3 -16 13 -16 22 0 13 -3 12 -15 -4 -8 -10 -15 -14 -14 -9 4 31 -3 41 -28
40 -19 0 -27 5 -25 14 3 12 0 12 -12 2 -13 -11 -14 -9 -10 16 3 19 1 23 -5 14
-6 -10 -13 -11 -30 -2 -11 7 -21 17 -21 24 0 9 -2 9 -8 0 -6 -9 -12 -7 -22 7
-8 11 -25 20 -38 20 -15 0 -21 4 -16 12 5 8 2 9 -9 5 -10 -4 -17 -1 -17 6 0 8
-4 6 -10 -3 -8 -13 -10 -13 -10 2 0 9 -5 20 -12 24 -6 4 -9 3 -5 -2 3 -5 -5
-9 -18 -9 -13 0 -22 2 -20 4 3 2 0 12 -6 23 -8 15 -13 17 -25 7 -11 -9 -14 -9
-14 1 0 10 -3 10 -15 0 -13 -11 -14 -10 -10 2 3 8 -1 21 -10 28 -8 7 -15 9
-15 5 0 -5 -10 0 -22 11 -22 19 -22 19 -8 0 13 -18 13 -19 0 -11 -8 4 -23 15
-32 23 -10 8 -28 12 -42 10 -15 -3 -24 -1 -23 6 1 6 -7 12 -18 12 -11 1 -26 2
-33 3 -8 1 -10 6 -6 14 6 8 3 8 -9 -1 -14 -12 -16 -11 -12 5 3 20 -5 23 -54
23 -16 0 -21 4 -17 15 3 8 1 15 -4 15 -6 0 -10 -6 -10 -14 0 -8 -4 -17 -9 -20
-5 -4 -7 2 -4 13 3 10 0 22 -6 25 -7 5 -9 0 -5 -11 5 -17 5 -17 -9 0 -16 19
-32 24 -21 6 4 -7 1 -10 -7 -7 -8 3 -13 11 -11 18 3 11 0 11 -13 0 -13 -11
-14 -10 -9 5 5 12 4 16 -4 11 -6 -3 -13 -2 -17 3 -3 6 -13 7 -22 4 -12 -5 -14
-3 -8 8 6 11 5 12 -5 2 -11 -10 -16 -9 -27 5 -8 9 -12 12 -9 5 4 -6 2 -14 -4
-18 -5 -3 -10 2 -10 12 0 15 -2 16 -10 3 -8 -12 -10 -12 -10 5 0 17 -2 17 -10
5 -8 -12 -10 -12 -10 -1 0 9 -8 12 -24 9 -19 -4 -23 -1 -18 10 4 11 1 14 -10
10 -9 -4 -21 -1 -28 5 -10 9 -11 9 -5 -2 6 -11 4 -13 -9 -8 -10 4 -20 7 -22 7
-3 0 -3 4 0 9 4 5 -2 8 -11 7 -10 -2 -27 0 -39 4 -11 5 -28 4 -37 -1 -11 -7
-17 -6 -17 0 0 5 6 12 13 14 9 4 9 6 -1 6 -7 1 -23 -4 -35 -10 l-22 -12 20 24
c14 16 15 20 3 10 -9 -7 -23 -9 -29 -5 -8 5 -9 3 -4 -7 8 -12 6 -12 -8 0 -9 7
-14 18 -10 24 3 6 1 7 -5 3 -6 -4 -8 -14 -5 -23 6 -15 5 -16 -9 -3 -9 8 -14
18 -11 22 2 4 -3 5 -11 2 -9 -3 -13 -11 -9 -17 3 -6 1 -7 -5 -3 -6 4 -9 12 -6
19 3 8 -3 13 -15 13 -11 0 -18 -3 -15 -7 6 -10 -24 -5 -33 6 -4 4 -2 5 6 0 9
-5 12 -4 7 3 -4 8 -15 8 -31 2 -18 -7 -28 -5 -40 6 -8 9 -22 13 -30 10 -8 -3
-15 0 -15 7 0 8 -4 7 -10 -3 -8 -13 -10 -13 -15 1 -6 16 -42 18 -66 4 -7 -4
-11 -4 -6 0 4 5 -5 14 -20 20 -30 12 -66 8 -57 -6 3 -5 -2 -6 -10 -3 -9 3 -14
10 -11 14 11 17 -17 21 -34 6 -20 -19 -31 -20 -31 -5 0 5 6 7 13 3 7 -4 9 -3
4 2 -12 12 -80 12 -89 -1 -4 -5 -8 -1 -8 10 0 17 -2 17 -10 5 -8 -12 -10 -12
-10 -1 0 11 -3 11 -17 0 -9 -8 -14 -9 -11 -4 4 6 -2 12 -13 12 -10 1 -19 -3
-19 -8 0 -6 5 -7 12 -3 7 5 8 3 4 -5 -6 -9 -13 -8 -27 5 -11 9 -22 14 -26 11
-3 -4 -13 -1 -21 6 -11 8 -14 8 -9 0 4 -6 3 -14 -3 -18 -5 -3 -10 2 -11 12 0
11 -3 13 -6 5 -4 -10 -10 -9 -30 4 -14 9 -23 12 -19 6 3 -5 -1 -13 -10 -16 -8
-3 -12 -2 -9 4 3 6 -1 7 -9 4 -10 -4 -16 -1 -16 7 0 8 -6 5 -15 -7 -8 -10 -15
-14 -15 -9 0 6 -5 3 -11 -5 -9 -13 -10 -13 -6 0 2 8 10 14 16 12 7 -1 10 2 6
7 -6 11 -35 4 -35 -8 0 -4 -10 -7 -22 -5 -13 1 -27 3 -31 3 -5 1 -5 5 -2 11 3
6 -1 7 -9 4 -9 -3 -13 -10 -10 -15 3 -5 -2 -6 -10 -3 -9 3 -16 11 -16 17 0 6
-7 2 -15 -9 -8 -10 -15 -14 -15 -9 0 6 -5 3 -11 -5 -9 -13 -10 -13 -6 0 2 8
10 14 16 12 7 -1 10 2 6 7 -6 11 -35 4 -35 -8 0 -4 -10 -7 -22 -5 -13 1 -27 3
-31 3 -5 1 -5 6 -2 12 4 6 -2 5 -13 -2 -12 -7 -18 -17 -15 -23 4 -5 -7 0 -24
12 -23 16 -34 19 -39 11 -5 -8 -3 -9 6 -4 8 5 11 4 6 -3 -4 -6 -14 -8 -23 -5
-11 5 -14 3 -8 -6 4 -7 -5 -5 -20 5 -29 19 -63 25 -70 13 -3 -4 5 -6 18 -5 14
2 24 -2 24 -10 0 -7 -4 -11 -9 -8 -5 3 -21 7 -36 10 -15 3 -35 7 -46 10 -12 4
-16 2 -12 -5 10 -16 0 -13 -18 5 -15 14 -16 13 -16 -7z m-250 -29 c0 -5 -5
-10 -11 -10 -5 0 -7 5 -4 10 3 6 8 10 11 10 2 0 4 -4 4 -10z m1220 6 c0 -3 -4
-8 -10 -11 -5 -3 -10 -1 -10 4 0 6 5 11 10 11 6 0 10 -2 10 -4z m90 -32 c0 -2
-9 0 -20 6 -15 8 -20 8 -20 -1 0 -7 -3 -10 -6 -6 -3 3 -3 10 1 16 6 11 45 -2
45 -15z m-1475 -4 c-3 -5 -12 -10 -18 -10 -7 0 -6 4 3 10 19 12 23 12 15 0z
m-335 -70 c0 -5 -4 -10 -10 -10 -5 0 -10 5 -10 10 0 6 5 10 10 10 6 0 10 -4
10 -10z m2568 -115 c-3 -3 -9 2 -12 12 -6 14 -5 15 5 6 7 -7 10 -15 7 -18z
m174 -49 c7 4 8 2 4 -5 -9 -13 -26 -5 -25 12 0 9 2 8 6 -1 2 -6 10 -9 15 -6z
m155 -71 c0 -8 -4 -12 -9 -9 -5 3 -6 10 -3 15 9 13 12 11 12 -6z m80 -30 c0
-8 -4 -12 -9 -9 -5 3 -6 10 -3 15 9 13 12 11 12 -6z m70 -37 c-3 -8 -6 -5 -6
6 -1 11 2 17 5 13 3 -3 4 -12 1 -19z m633 -333 c11 -13 10 -14 -4 -9 -9 3 -16
10 -16 15 0 13 6 11 20 -6z m-5295 -105 c3 -6 -1 -7 -9 -4 -18 7 -21 14 -7 14
6 0 13 -4 16 -10z m-53 -27 c-6 -2 -10 -8 -8 -12 3 -4 -1 -8 -9 -8 -11 0 -12
4 -4 14 6 7 17 13 23 12 7 0 6 -2 -2 -6z m5573 -33 c-3 -5 -12 -10 -18 -10 -7
0 -6 4 3 10 19 12 23 12 15 0z m160 -130 c-3 -5 -12 -10 -18 -10 -7 0 -6 4 3
10 19 12 23 12 15 0z m104 -82 c14 -10 21 -18 15 -18 -7 0 -27 14 -45 32 -19
18 -41 31 -49 30 -13 -3 -13 -2 0 8 11 7 20 4 34 -13 10 -12 30 -30 45 -39z
m-6116 17 c-3 -9 -8 -14 -10 -11 -3 3 -2 9 2 15 9 16 15 13 8 -4z m-92 -78
c-6 -8 -7 -18 -3 -22 4 -5 1 -5 -6 -1 -10 6 -10 11 -1 22 6 8 14 14 16 14 3 0
0 -6 -6 -13z m6289 -12 c13 -14 21 -25 18 -25 -2 0 -15 11 -28 25 -13 14 -21
25 -18 25 2 0 15 -11 28 -25z m-6670 -375 c0 -5 -2 -10 -4 -10 -3 0 -8 5 -11
10 -3 6 -1 10 4 10 6 0 11 -4 11 -10z m-78 -86 c-12 -8 -19 -20 -16 -26 4 -6
2 -8 -3 -5 -11 7 -28 -20 -24 -36 1 -5 -3 -6 -9 -2 -8 5 -7 12 2 23 28 38 52
62 62 62 6 0 0 -7 -12 -16z m7498 -415 c0 -6 -4 -7 -10 -4 -5 3 -10 11 -10 16
0 6 5 7 10 4 6 -3 10 -11 10 -16z m80 -114 c0 -2 -6 -7 -12 -11 -7 -4 -10 -4
-6 1 4 4 0 14 -10 22 -15 13 -15 13 6 3 12 -6 22 -13 22 -15z m-8000 -65 c0
-5 -5 -10 -11 -10 -5 0 -7 5 -4 10 3 6 8 10 11 10 2 0 4 -4 4 -10z m-60 -114
c0 -2 -7 -7 -16 -10 -8 -3 -12 -2 -9 4 6 10 25 14 25 6z m8285 -226 c3 -5 2
-10 -4 -10 -5 0 -13 5 -16 10 -3 6 -2 10 4 10 5 0 13 -4 16 -10z m57 -144 c7
4 8 2 4 -5 -9 -13 -26 -5 -25 12 0 9 2 8 6 -1 2 -6 10 -9 15 -6z m82 -174 c3
-5 -1 -9 -9 -9 -8 0 -15 4 -15 9 0 4 4 8 9 8 6 0 12 -4 15 -8z m-8734 -107
c11 -13 10 -14 -4 -9 -9 3 -16 10 -16 15 0 13 6 11 20 -6z m8825 -144 c3 -5 2
-12 -3 -15 -5 -3 -9 1 -9 9 0 17 3 19 12 6z m9 -49 c3 -5 -1 -9 -9 -9 -8 0
-12 4 -9 9 3 4 7 8 9 8 2 0 6 -4 9 -8z m-8909 -72 c-3 -5 -12 -10 -18 -10 -7
0 -6 4 3 10 19 12 23 12 15 0z m9040 -360 c3 -6 -1 -7 -9 -4 -18 7 -21 14 -7
14 6 0 13 -4 16 -10z m-9154 -27 c13 -16 12 -17 -3 -4 -17 13 -22 21 -14 21 2
0 10 -8 17 -17z m9169 -43 c0 -5 -7 -7 -15 -4 -8 4 -15 8 -15 10 0 2 7 4 15 4
8 0 15 -4 15 -10z m-9230 -344 c0 -2 -7 -7 -16 -10 -8 -3 -12 -2 -9 4 6 10 25
14 25 6z m-50 -456 c0 -5 -5 -10 -11 -10 -5 0 -7 5 -4 10 3 6 8 10 11 10 2 0
4 -4 4 -10z m337 -1912 c-3 -8 -6 -5 -6 6 -1 11 2 17 5 13 3 -3 4 -12 1 -19z
m630 -1105 c0 -9 -4 -10 -14 -2 -7 6 -13 12 -13 14 0 1 6 2 13 2 8 0 14 -6 14
-14z m227 -269 c3 -8 2 -12 -4 -9 -6 3 -10 10 -10 16 0 14 7 11 14 -7z m389
-389 c-3 -9 -8 -14 -10 -11 -3 3 -2 9 2 15 9 16 15 13 8 -4z m41 -41 c3 -8 2
-12 -4 -9 -6 3 -10 10 -10 16 0 14 7 11 14 -7z m383 -296 c2 -17 0 -19 -7 -8
-5 8 -6 18 -4 22 8 12 10 10 11 -14z m31 -23 c-3 -3 -9 2 -12 12 -6 14 -5 15
5 6 7 -7 10 -15 7 -18z m234 -139 c7 4 8 2 4 -5 -9 -13 -26 -5 -25 12 0 9 2 8
6 -1 2 -6 10 -9 15 -6z m573 -294 c-3 -3 -11 0 -18 7 -9 10 -8 11 6 5 10 -3
15 -9 12 -12z m125 -48 c0 -8 -19 -13 -24 -6 -3 5 1 9 9 9 8 0 15 -2 15 -3z
m75 -42 c-3 -3 -11 0 -18 7 -9 10 -8 11 6 5 10 -3 15 -9 12 -12z m6322 -197
c0 -8 -4 -12 -9 -9 -5 3 -6 10 -3 15 9 13 12 11 12 -6z m-4957 -91 c0 -8 -5
-12 -10 -9 -6 4 -8 11 -5 16 9 14 15 11 15 -7z m533 3 c3 -8 -1 -14 -8 -14 -7
0 -11 6 -8 14 3 7 6 13 8 13 2 0 5 -6 8 -13z m560 0 c3 -8 -1 -14 -8 -14 -7 0
-11 6 -8 14 3 7 6 13 8 13 2 0 5 -6 8 -13z m400 0 c3 -8 -1 -14 -8 -14 -7 0
-11 6 -8 14 3 7 6 13 8 13 2 0 5 -6 8 -13z m560 0 c3 -8 -1 -14 -8 -14 -7 0
-11 6 -8 14 3 7 6 13 8 13 2 0 5 -6 8 -13z m400 0 c3 -8 -1 -14 -8 -14 -7 0
-11 6 -8 14 3 7 6 13 8 13 2 0 5 -6 8 -13z m560 0 c3 -8 -1 -14 -8 -14 -7 0
-11 6 -8 14 3 7 6 13 8 13 2 0 5 -6 8 -13z m400 0 c3 -8 -1 -14 -8 -14 -7 0
-11 6 -8 14 3 7 6 13 8 13 2 0 5 -6 8 -13z m560 0 c3 -8 -1 -14 -8 -14 -7 0
-11 6 -8 14 3 7 6 13 8 13 2 0 5 -6 8 -13z m400 0 c3 -8 -1 -14 -8 -14 -7 0
-11 6 -8 14 3 7 6 13 8 13 2 0 5 -6 8 -13z m548 -10 c-10 -9 -11 -8 -5 6 3 10
9 15 12 12 3 -3 0 -11 -7 -18z m-4761 9 c0 -3 -4 -8 -10 -11 -5 -3 -10 -1 -10
4 0 6 5 11 10 11 6 0 10 -2 10 -4z"/>
<path d="M6710 10879 c0 -5 5 -7 10 -4 6 3 10 8 10 11 0 2 -4 4 -10 4 -5 0
-10 -5 -10 -11z"/>
<path d="M4130 10649 c0 -5 5 -7 10 -4 6 3 10 8 10 11 0 2 -4 4 -10 4 -5 0
-10 -5 -10 -11z"/>
<path d="M8190 10321 c0 -6 4 -13 10 -16 6 -3 7 1 4 9 -7 18 -14 21 -14 7z"/>
<path d="M9182 9534 c10 -10 20 -16 22 -13 3 3 -5 11 -17 18 -21 13 -21 12 -5
-5z"/>
<path d="M9362 9344 c10 -10 20 -16 22 -13 3 3 -5 11 -17 18 -21 13 -21 12 -5
-5z"/>
<path d="M10345 7500 c4 -6 11 -8 16 -5 14 9 11 15 -7 15 -8 0 -12 -5 -9 -10z"/>
<path d="M10375 7411 c-3 -5 -2 -12 3 -15 5 -3 9 1 9 9 0 17 -3 19 -12 6z"/>
<path d="M1195 7131 c-3 -5 -2 -12 3 -15 5 -3 9 1 9 9 0 17 -3 19 -12 6z"/>
<path d="M1180 7059 c0 -5 5 -7 10 -4 6 3 10 8 10 11 0 2 -4 4 -10 4 -5 0 -10
-5 -10 -11z"/>
<path d="M10470 6919 c0 -5 5 -7 10 -4 6 3 10 8 10 11 0 2 -4 4 -10 4 -5 0
-10 -5 -10 -11z"/>
<path d="M10470 6836 c0 -2 7 -7 16 -10 8 -3 12 -2 9 4 -6 10 -25 14 -25 6z"/>
<path d="M1339 4832 c7 -5 11 -14 7 -20 -3 -6 -2 -13 2 -16 5 -3 9 4 8 16 0
12 -8 23 -16 25 -12 4 -13 3 -1 -5z"/>
<path d="M1530 4329 c0 -5 5 -7 10 -4 6 3 10 8 10 11 0 2 -4 4 -10 4 -5 0 -10
-5 -10 -11z"/>
<path d="M1710 3964 c0 -8 5 -12 10 -9 6 4 8 11 5 16 -9 14 -15 11 -15 -7z"/>
<path d="M2110 3359 c0 -5 5 -7 10 -4 6 3 10 8 10 11 0 2 -4 4 -10 4 -5 0 -10
-5 -10 -11z"/>
<path d="M3450 2201 c0 -5 7 -12 16 -15 14 -5 15 -4 4 9 -14 17 -20 19 -20 6z"/>
<path d="M6116 1562 c-3 -5 1 -9 9 -9 8 0 12 4 9 9 -3 4 -7 8 -9 8 -2 0 -6 -4
-9 -8z"/>
<path d="M6516 1562 c-3 -5 1 -9 9 -9 8 0 12 4 9 9 -3 4 -7 8 -9 8 -2 0 -6 -4
-9 -8z"/>
<path d="M6670 1559 c0 -5 5 -7 10 -4 6 3 10 8 10 11 0 2 -4 4 -10 4 -5 0 -10
-5 -10 -11z"/>
<path d="M7076 1562 c-3 -5 1 -9 9 -9 8 0 12 4 9 9 -3 4 -7 8 -9 8 -2 0 -6 -4
-9 -8z"/>
<path d="M7476 1562 c-3 -5 1 -9 9 -9 8 0 12 4 9 9 -3 4 -7 8 -9 8 -2 0 -6 -4
-9 -8z"/>
<path d="M7630 1559 c0 -5 5 -7 10 -4 6 3 10 8 10 11 0 2 -4 4 -10 4 -5 0 -10
-5 -10 -11z"/>
<path d="M8036 1562 c-3 -5 1 -9 9 -9 8 0 12 4 9 9 -3 4 -7 8 -9 8 -2 0 -6 -4
-9 -8z"/>
<path d="M8436 1562 c-3 -5 1 -9 9 -9 8 0 12 4 9 9 -3 4 -7 8 -9 8 -2 0 -6 -4
-9 -8z"/>
<path d="M8590 1559 c0 -5 5 -7 10 -4 6 3 10 8 10 11 0 2 -4 4 -10 4 -5 0 -10
-5 -10 -11z"/>
<path d="M8996 1562 c-3 -5 1 -9 9 -9 8 0 12 4 9 9 -3 4 -7 8 -9 8 -2 0 -6 -4
-9 -8z"/>
<path d="M9396 1562 c-3 -5 1 -9 9 -9 8 0 12 4 9 9 -3 4 -7 8 -9 8 -2 0 -6 -4
-9 -8z"/>
<path d="M9550 1559 c0 -5 5 -7 10 -4 6 3 10 8 10 11 0 2 -4 4 -10 4 -5 0 -10
-5 -10 -11z"/>
<path d="M9956 1562 c-3 -5 1 -9 9 -9 8 0 12 4 9 9 -3 4 -7 8 -9 8 -2 0 -6 -4
-9 -8z"/>
<path d="M10416 1562 c-3 -5 1 -9 9 -9 8 0 12 4 9 9 -3 4 -7 8 -9 8 -2 0 -6
-4 -9 -8z"/>
</g>
</svg>
